<svg width="431" height="424" viewBox="0 0 431 424" fill="none" xmlns="http://www.w3.org/2000/svg">
<g filter="url(#filter0_d)">
<rect x="160" y="86" width="193" height="261" fill="#FFFCFC"/>
<rect x="163" y="89" width="187" height="255" stroke="#FF0404" stroke-width="6"/>
</g>
<line x1="186" y1="166" x2="327" y2="166" stroke="#FF0404" stroke-width="6"/>
<line x1="186" y1="133" x2="327" y2="133" stroke="#FF0000" stroke-width="6"/>
<line x1="186" y1="300" x2="327" y2="300" stroke="#FF0202" stroke-width="6"/>
<line x1="186" y1="266" x2="327" y2="266" stroke="#FF0303" stroke-width="6"/>
<line x1="186" y1="233" x2="327" y2="233" stroke="#FF0202" stroke-width="6"/>
<line x1="186" y1="200" x2="327" y2="200" stroke="#FF0404" stroke-width="6"/>
<path d="M29.8484 342.313L143.224 209.757L201.851 371.3L29.8484 342.313Z" fill="#9B413B"/>
<path d="M348 0L367.533 58.3881H430.742L379.605 94.4739L399.137 152.862L348 116.776L296.863 152.862L316.395 94.4739L265.258 58.3881H328.467L348 0Z" fill="#B54949"/>
<defs>
<filter id="filter0_d" x="156" y="86" width="201" height="269" filterUnits="userSpaceOnUse" color-interpolation-filters="sRGB">
<feFlood flood-opacity="0" result="BackgroundImageFix"/>
<feColorMatrix in="SourceAlpha" type="matrix" values="0 0 0 0 0 0 0 0 0 0 0 0 0 0 0 0 0 0 127 0"/>
<feOffset dy="4"/>
<feGaussianBlur stdDeviation="2"/>
<feColorMatrix type="matrix" values="0 0 0 0 0 0 0 0 0 0 0 0 0 0 0 0 0 0 0.25 0"/>
<feBlend mode="normal" in2="BackgroundImageFix" result="effect1_dropShadow"/>
<feBlend mode="normal" in="SourceGraphic" in2="effect1_dropShadow" result="shape"/>
</filter>
</defs>
</svg>
